<?xml version="1.0" encoding="utf-8"?>
<!-- Generator: Adobe Illustrator 24.0.2, SVG Export Plug-In . SVG Version: 6.00 Build 0)  -->
<svg version="1.1" id="Layer_1" xmlns="http://www.w3.org/2000/svg" xmlns:xlink="http://www.w3.org/1999/xlink" x="0px" y="0px"
	 viewBox="0 0 1920 211.4" style="enable-background:new 0 0 1920 211.4;" xml:space="preserve">
<style type="text/css">
	.st0{fill:#66FE66;}
</style>
<path class="st0" d="M0,211.4C0,154.9,0,98.9,0,42.5c9.7,1,19.2,1.7,28.6,3c27.4,3.8,54.8,7.7,82.2,11.7c26.4,3.9,52.8,8,79.2,12.2
	c22.9,3.6,45.8,7.3,68.7,11.1c26.1,4.3,52.1,8.5,78.2,13c19.4,3.3,38.6,7.2,58,10.6c14,2.5,28,5.1,42.2,7c16.5,2.1,33,4.3,49.6,5
	c26.7,1.1,53.6,1.9,80.3,0.9c24-1,47.9-4,71.7-7.3c49.7-6.9,97.7-20.7,146-33.9c33-9,66.2-17.7,99.5-25.5
	c21.9-5.2,44.2-8.9,66.4-12.6c12.8-2.1,25.8-3.3,38.8-4.2c22.6-1.5,45.3-3,67.9-3.5c12.3-0.3,24.7,1.3,37.1,2.5
	c14.9,1.4,30,2.5,44.7,5.1c20,3.5,39.8,8.2,59.7,12.5c34.2,7.4,68.3,15.2,102.6,22.3c16.1,3.3,32.5,5.6,48.8,7.8
	c9.8,1.3,19.7,1.7,29.6,2.1c24.2,0.8,48.4,1.9,72.7,1.9c15,0,30-1.7,45-2.6c11.1-0.7,22.2-1.2,33.2-2.3c11-1,22-2.6,33-4
	c42.4-5.4,84.6-12.2,126-22.5c47.6-11.8,94.8-25.2,142.2-37.5c18.1-4.7,36.4-8.9,54.7-12.4c10.8-2,22-1.9,33.4-2.8
	c0,71,0,141.1,0,211.4C1280,211.4,640.2,211.4,0,211.4z"/>
</svg>
