<?xml version="1.0" encoding="utf-8"?>
<!-- Generator: Adobe Illustrator 24.0.2, SVG Export Plug-In . SVG Version: 6.00 Build 0)  -->
<svg version="1.1" id="Layer_1" xmlns="http://www.w3.org/2000/svg" xmlns:xlink="http://www.w3.org/1999/xlink" x="0px" y="0px"
	 viewBox="0 0 288.4 144.1" style="enable-background:new 0 0 288.4 144.1;" xml:space="preserve">
<style type="text/css">
	.st0{display:none;}
	.st1{display:inline;fill:#1B1B1D;stroke:#000000;stroke-miterlimit:10;}
	.st2{fill:#E6E3D9;}
	.st3{fill:#E6B44B;}
</style>
<g id="background" class="st0">
	<rect x="-99.7" y="-88.6" class="st1" width="483.3" height="296"/>
</g>
<g id="logo">
	<title>logo</title>
	<path class="st2" d="M49.6,27.4v66.1c0,12.6,0.1,24.2,0.3,34.6c0.1,3,1.2,4.7,3.2,5.1l16,4.7l0.3,6.2c-12.5-0.3-23.7-0.4-33.7-0.4
		s-21.6,0.1-35.1,0.4L0,137.9l17.4-5.1c2.5-0.7,3.8-2.3,3.9-4.7c0.1-5.3,0.2-11.5,0.1-18.6V57.9c0-13.2-0.2-25.5-0.6-36.8l-20-5.4
		L0,10.6C16.7,7.3,32.6,3.8,47.8,0l1.6,1v17.5"/>
	<path class="st2" d="M64,21C80,7,97.3,0,116,0c14,0,25,3.9,32.9,11.9s11.9,19.3,11.9,34v53.5c0,12.7,0.1,22.1,0.3,28.1
		c0,2.5,1.7,4.7,4.1,5.3l16.8,5.1l0.3,6.2c-13.3-0.3-25-0.4-34.9-0.4c-10.1,0-21.1,0.1-33.1,0.4l-0.6-6.2l15-4.4
		c2.2-0.6,3.7-2.5,3.9-4.7c0.1-1.4,0.1-4.6,0.1-9.5v-66c0-12.4-2.9-21.3-8.6-26.7s-14.2-8.1-25.4-8.1c-11.3,0-21.8,3.6-31.5,10.9
		L64,21z"/>
	<path class="st2" d="M170.1,21c16-14,33.3-21,52-21c14,0,25,4,32.9,11.9c8,7.9,11.9,19.2,11.9,34v53.5c0,12.7,0.1,22.1,0.3,28.1
		c0,2.5,1.7,4.6,4.1,5.3l16.8,5.1l0.3,6.2c-13.3-0.3-25-0.4-34.9-0.4c-10.1,0-21.1,0.2-33.1,0.4l-0.6-6.2l15-4.4
		c2.1-0.6,3.7-2.5,3.9-4.7c0.1-1.4,0.1-4.6,0.1-9.5v-66c0-12.4-2.9-21.3-8.6-26.7c-5.7-5.4-14.2-8.1-25.3-8.1
		c-11.3,0-21.8,3.6-31.5,10.9L170.1,21z"/>
	<path class="st3" d="M175.3,39.6v46.6l47.1,21.2V52.8C222.4,52.8,221,10.5,175.3,39.6z"/>
	<path class="st3" d="M69.4,39.6v46.6l47.1,21.2V52.8C116.5,52.8,115.1,10.5,69.4,39.6z"/>
</g>
</svg>
