<svg xmlns="http://www.w3.org/2000/svg" viewBox="0 0 600 800"><defs><style>.cls-1{fill:none;stroke:#000;stroke-miterlimit:10;}</style></defs><title>portret</title><g id="portret_obris" data-name="portret obris"><path class="cls-1" d="M300.5,391.5s33,8,58-43c0,0,12-31,12-40,0,0,15-21,15-48,0,0-4-10-10,6,0,0-5-23-6-25s-18-22-18-25,3-48-30-49-67-7-80,34c0,0-10,21-13,35,0,0-11,19-11,38,0,0-20-19-20,0s18,42,29,43c0,0,7,41,30,60S300.5,391.5,300.5,391.5Z"/><path class="cls-1" d="M232.5,345.5s-4-10-6-9-4,7-4,7,5-12,0-11a22.58,22.58,0,0,1-9,0v-4l-5,2s-2-4-2-6-4,0-2,0-1-10-1-10l-3,3-7-3,8-17s-12-60-4-82,35-83,59-89,35,5,35,5,22-23,45,4c0,0,14,6,27,27s21,47,25,59,3,25,0,32,7,32,7,32-12-19-10-16.5,0,49.5,0,49.5l-4-21-1,25s-2-14-3-13-3,22-3,22-4.29-17.62-5.15-15.81-.85,15.81-.85,15.81l-2.32-4.74"/><path class="cls-1" d="M243.5,258.5s14-18,35-3C278.5,255.5,264.5,267.5,243.5,258.5Z"/><path class="cls-1" d="M241.5,254.5s18-17,39-2"/><path class="cls-1" d="M317.5,254.5s19,5,34,0C351.5,254.5,336.5,234.5,317.5,254.5Z"/><path class="cls-1" d="M314.5,251.5s22-19,41,0"/><path class="cls-1" d="M232.5,247.5s2-14,11-15,43,0,43,0,2,10,0,11S242.5,234.5,232.5,247.5Z"/><path class="cls-1" d="M310.5,232.5s27-9,34-8,14,10,14,10-43,5-48,7S304.5,236.5,310.5,232.5Z"/><path class="cls-1" d="M308.5,258.5c-1,1,8,24,9,35s-5,11-5,11-4-10-11-2c0,0-5,2-7,0s-7-7-9,0c0,0-9-1-5-11s14-29,14-33"/><path class="cls-1" d="M273.5,334.5c2,1,47-5,53,0"/><path class="cls-1" d="M273.5,332.5c1-1,35-19,56,2,0,0-41,15-58,0"/><path class="cls-1" d="M223.5,304.5c-1-1-16,4-15-14s1-17,9-11"/><path class="cls-1" d="M371.5,294.5s13-5,2-15"/><path class="cls-1" d="M236,348.16l.5,51.34s-19,39,12,45,95,1,110-28c0,0,10,1,0-19l-3-43.24"/><path class="cls-1" d="M362.5,400.5s126,52,137,62,71,87,92,225"/><path class="cls-1" d="M236.48,397.45s-16-1.95-28,18.05c0,0-105,40-122,66,0,0-28,48-33,58s-41,128-46,148"/></g></svg>