<svg xmlns="http://www.w3.org/2000/svg" viewBox="0 0 584 565.13">
  <defs>
    <style>
      .cls-1 {
        fill: none;
      }

      .cls-1, .cls-2 {
        stroke: #ccc;
        stroke-miterlimit: 10;
      }
    </style>
  </defs>
  <title>portret</title>
  <g id="portret_obris" data-name="portret obris">
    <path class="cls-1" d="M293,269.13s33,8,58-43c0,0,12-31,12-40,0,0,15-21,15-48,0,0-4-10-10,6,0,0-5-23-6-25s-18-22-18-25,3-48-30-49-67-7-80,34c0,0-10,21-13,35,0,0-11,19-11,38,0,0-20-19-20,0s18,42,29,43c0,0,7,41,30,60S293,269.13,293,269.13Z"/>
    <path class="cls-1" d="M225,223.13s-4-10-6-9-4,7-4,7,5-12,0-11a22.58,22.58,0,0,1-9,0v-4l-5,2s-2-4-2-6-4,0-2,0-1-10-1-10l-3,3-7-3,8-17s-12-60-4-82,35-83,59-89,35,5,35,5,22-23,45,4c0,0,14,6,27,27s21,47,25,59,3,25,0,32,7,32,7,32-12-19-10-16.5,0,49.5,0,49.5l-4-21-1,25s-2-14-3-13-3,22-3,22-4.29-17.62-5.15-15.81-.85,15.81-.85,15.81l-2.32-4.73"/>
    <path class="cls-1" d="M236,136.13s14-19,35-3C271,133.13,257,143.13,236,136.13Z"/>
    <path class="cls-1" d="M234,132.13s18-17,39-2"/>
    <path class="cls-1" d="M310,132.13s19,5,34,0C344,132.13,329,112.13,310,132.13Z"/>
    <path class="cls-1" d="M307,129.13s22-19,41,0"/>
    <path class="cls-1" d="M225,125.13s2-14,11-15,43,0,43,0,2,10,0,11S235,112.13,225,125.13Z"/>
    <path class="cls-1" d="M303,110.13s27-9,34-8,14,10,14,10-43,5-48,7S297,114.13,303,110.13Z"/>
    <path class="cls-1" d="M299.94,136.13c-.38,13.56,8.66,22.75,9.89,33.72,1.06,9.42-5.24,9.7-5.24,9.7s-3.59-7.42-10.59.58c0,0-5,2-7,0s-7-7-9,0c0,0-6.26-1.06-3.82-11.14,2.53-10.47,12.76-21.65,11.73-32.86"/>
    <path class="cls-1" d="M266,212.13c2,1,47-5,53,0"/>
    <path class="cls-1" d="M266,210.13c1-1,35-19,56,2,0,0-41,15-58,0"/>
    <path class="cls-1" d="M216,182.13c-1-1-16,4-15-14s1-17,9-11"/>
    <path class="cls-1" d="M364,172.13s13-5,2-15"/>
    <path class="cls-1" d="M228.5,225.79l.5,51.34s-19,39,12,45,95,1,110-28c0,0,10,1,0-19l-3-43.23"/>
    <path class="cls-1" d="M355,278.13s126,52,137,62,71,87,92,225"/>
    <path class="cls-1" d="M229,275.08s-16-1.95-28,18.05c0,0-105,40-122,66,0,0-28,48-33,58s-41,128-46,148"/>
    <path class="cls-1" d="M329.9,123.56a6,6,0,1,1-9.57,1"/>
    <path class="cls-1" d="M258.41,127.38a6.5,6.5,0,1,1-10.22.51"/>
    <circle class="cls-2" cx="253.5" cy="132.13" r="1.5"/>
    <circle class="cls-2" cx="325.5" cy="128.04" r="1.5"/>
  </g>
</svg>
