<?xml version="1.0" encoding="utf-8"?>
<!-- Generator: Adobe Illustrator 24.0.2, SVG Export Plug-In . SVG Version: 6.00 Build 0)  -->
<svg version="1.1" id="Layer_1" xmlns="http://www.w3.org/2000/svg" xmlns:xlink="http://www.w3.org/1999/xlink" x="0px" y="0px"
	 viewBox="0 0 1920 211.4" style="enable-background:new 0 0 1920 211.4;" xml:space="preserve">
<style type="text/css">
	.st0{fill:#282627;}
</style>
<path class="st0" d="M0,223.1c0-59.6,0-118.7,0-178.3c9.7,1.1,19.2,1.8,28.6,3.2c27.4,4,54.8,8.1,82.2,12.3
	c26.4,4.1,52.8,8.4,79.2,12.9C212.9,77,235.8,81,258.7,85c26.1,4.5,52.1,9,78.2,13.7c19.4,3.5,38.6,7.6,58,11.2
	c14,2.6,28,5.4,42.2,7.4c16.5,2.2,33,4.5,49.6,5.3c26.7,1.2,53.6,2,80.3,0.9c24-1.1,47.9-4.2,71.7-7.7c49.7-7.3,97.7-21.8,146-35.8
	c33-9.5,66.2-18.7,99.5-26.9c21.9-5.5,44.2-9.4,66.4-13.3c12.8-2.2,25.8-3.5,38.8-4.4c22.6-1.6,45.3-3.2,67.9-3.7
	c12.3-0.3,24.7,1.4,37.1,2.6c14.9,1.5,30,2.6,44.7,5.4c20,3.7,39.8,8.7,59.7,13.2c34.2,7.8,68.3,16,102.6,23.5
	c16.1,3.5,32.5,5.9,48.8,8.2c9.8,1.4,19.7,1.8,29.6,2.2c24.2,0.8,48.4,2,72.7,2c15,0,30-1.8,45-2.7c11.1-0.7,22.2-1.3,33.2-2.4
	c11-1.1,22-2.7,33-4.2c42.4-5.7,84.6-12.9,126-23.7c47.6-12.5,94.8-26.6,142.2-39.6c18.1-5,36.4-9.4,54.7-13.1c10.8-2.1,22-2,33.4-3
	c0,74.9,0,148.9,0,223.1C1280,223.1,640.2,223.1,0,223.1z"/>
</svg>
